PathFileType	4	(X/Y/Z)	/Users/visionmauri/Downloads/Videos/OAW10-top_Sports2D/OAW10-top_Sports2D_px_person00.trc
DataRate	CameraRate	NumFrames	NumMarkers	Units	OrigDataRate	OrigDataStartFrame	OrigNumFrames
25.0	25.0	13	22	m	25.0	219	1754
Frame#	Time	Hip			RHip			RKnee			RAnkle			RBigToe			RSmallToe			RHeel			LHip			LKnee			LAnkle			LBigToe			LSmallToe			LHeel			Neck			Head			Nose			RShoulder			RElbow			RWrist			LShoulder			LElbow			LWrist			
		X1	Y1	Z1	X2	Y2	Z2	X3	Y3	Z3	X4	Y4	Z4	X5	Y5	Z5	X6	Y6	Z6	X7	Y7	Z7	X8	Y8	Z8	X9	Y9	Z9	X10	Y10	Z10	X11	Y11	Z11	X12	Y12	Z12	X13	Y13	Z13	X14	Y14	Z14	X15	Y15	Z15	X16	Y16	Z16	X17	Y17	Z17	X18	Y18	Z18	X19	Y19	Z19	X20	Y20	Z20	X21	Y21	Z21	X22	Y22	Z22
219	8.764997147746719	515.6146402164477	453.0662920638862	0.0	504.6326327561988	453.8678659497728	0.0	503.9403195485711	502.9943382464583	0.0	500.38467183952343	549.962803375418	0.0	500.5623002136177	562.7979130557817	0.0	493.72715975782205	561.7152765669965	0.0	501.38585624168536	554.8603186881688	0.0	526.2119920179161	453.8058000837203	0.0	522.9281003281496	503.5085647450661	0.0	519.8347979267066	550.6154626889089	0.0	514.9751724612523	563.3216304362796	0.0	521.981389253026	562.8382814292501	0.0	518.7559543214697	554.173267385328	0.0	517.8163987212721	380.2307579968157	0.0	517.4614911414445	349.27604817221237	0.0	516.5453030961799	370.0566260771074	0.0	495.81122146204086	387.8741023615539	0.0	488.9205681777438	424.39888476585486	0.0	487.01002161189405	455.6461807188743	0.0	540.8668896405181	388.63067898594	0.0	546.9613015963722	425.7085440702687	0.0	543.9852296640607	454.94839005500614	0.0
220	8.80501996577296	516.2831301266699	452.68003119709635	0.0	505.2848853564169	454.2462028068084	0.0	504.7382031019372	502.92766513239616	0.0	500.99289201737923	549.9345070668253	0.0	501.33727880701025	563.4571222663116	0.0	494.21322302171177	562.2128021022058	0.0	501.6382292268928	555.5695165329047	0.0	527.2405495047217	453.8860161773117	0.0	523.3845186136296	503.27699686902906	0.0	520.205759294576	550.9640061160682	0.0	515.5630996323117	563.7262742518252	0.0	522.5623137352405	563.3863731374068	0.0	518.9349065645997	554.591587714742	0.0	518.8414560595205	380.5263960582908	0.0	518.4188839150762	350.1260515576519	0.0	517.6028597105212	370.48374534102976	0.0	496.6646664003388	388.01126883025125	0.0	489.7585464088082	424.6848293441604	0.0	488.11351637775397	455.58776771206647	0.0	541.4079045350496	388.7703684028513	0.0	547.763011141676	425.6110398111504	0.0	545.2352895911346	454.72089857195755	0.0
221	8.845042783799201	516.8781869055551	452.07151550365415	0.0	506.1012200078944	454.212576087695	0.0	505.31635251092297	502.9373852135575	0.0	501.84683631091644	549.9750033459939	0.0	501.968196123781	564.1086580231362	0.0	494.9664212097664	562.7522601149415	0.0	502.4113819501592	555.7142414724084	0.0	527.9748838738594	453.96966175919704	0.0	523.7996628467334	503.29179972843474	0.0	520.5326687114788	550.576394905193	0.0	515.907947695231	563.8195636943752	0.0	522.5850213728694	563.3601842309942	0.0	519.1963703511321	554.9055111145238	0.0	519.405014737222	379.8290920903965	0.0	518.9571675711652	350.5645733636207	0.0	518.2795742347404	370.31151285110724	0.0	497.26093036865217	388.3094688750245	0.0	490.4781867925252	425.0741973214342	0.0	489.23646861015317	455.3607112350661	0.0	542.0310832093179	388.9547153760475	0.0	548.5084371859168	426.0614300900286	0.0	546.4301361341498	454.6608559800173	0.0
222	8.885065601825442	517.1786877280115	451.8946771259949	0.0	506.5161217400744	454.2773303420949	0.0	505.71159069460884	502.88653295988695	0.0	502.6182239097998	550.1576626541968	0.0	502.44466594578535	564.8691117050279	0.0	495.7826299722683	563.5909594927886	0.0	503.0649311254927	555.9114130310046	0.0	528.4819979464369	454.4276344208382	0.0	524.0642106097558	503.3225157096814	0.0	520.4468257738085	549.9628891932737	0.0	515.9641727807029	563.7492672297086	0.0	522.4116325512623	563.1094774600173	0.0	519.3192673771316	554.8151435173796	0.0	519.6982923034803	378.76573216987555	0.0	519.5256590389815	350.30408078970623	0.0	518.9234443972688	370.5958110056273	0.0	497.6218006471897	388.36984676115327	0.0	490.99828007595835	425.03295814641825	0.0	490.0028777219165	455.0190050677836	0.0	542.8464382389781	388.86011038313654	0.0	549.3413374623344	426.3619417956714	0.0	547.473620223851	454.6157759905405	0.0
223	8.925088419851683	517.3124977829838	452.2061776376383	0.0	506.48209997764457	454.42483521432797	0.0	506.10851469916656	502.7416741747327	0.0	503.04686463618043	550.5594852998498	0.0	502.98102521141345	565.750934982225	0.0	496.52568394956364	564.8230876380652	0.0	503.3613522909406	556.729215906544	0.0	528.8940970603685	454.91325951725736	0.0	524.2545699214572	503.32016077325886	0.0	520.0033967964521	550.1177687485689	0.0	516.0013151739762	563.6966865848883	0.0	522.4629457653505	563.0440561131796	0.0	519.3000679127621	554.6785132852535	0.0	520.1738848381892	378.7650907853677	0.0	520.1798003143684	350.6208164184076	0.0	519.7226879672523	372.55479118603074	0.0	497.94728626824576	388.1572781419338	0.0	491.30695140848206	424.5109803808621	0.0	490.2651466899071	454.9222487954308	0.0	543.5461733143522	388.73685654848106	0.0	550.2063389217657	426.25175490103834	0.0	548.5097858313492	454.74126736197996	0.0
224	8.965111237877922	517.6182644014135	453.0582460579426	0.0	506.579563376457	454.7260784607031	0.0	506.4995351564426	503.2114059170381	0.0	503.3358884311078	551.3015302737475	0.0	503.642206957708	566.4396905631936	0.0	497.2513019373001	565.7348369820816	0.0	503.77467093820866	557.6760910218636	0.0	529.0494406966232	455.3856770357005	0.0	524.3613133661696	504.06430937701856	0.0	519.6972540458063	550.5868998325644	0.0	516.0607756588677	563.5890583984311	0.0	522.6587655326877	562.9512225905512	0.0	519.3189500716718	554.7181583955763	0.0	520.7034527919827	379.8831897370113	0.0	520.5490727972408	351.70922324646676	0.0	520.1730524207179	374.51537337509603	0.0	498.1788434370462	388.5215215526151	0.0	491.29656630419396	424.5829105663649	0.0	490.2659820369713	455.5792568102799	0.0	544.0200580971763	389.1925812534647	0.0	550.9508932971128	426.43406650837295	0.0	549.3545066972356	455.264167439634	0.0
225	9.005134055904163	517.9875179848773	454.4455998809771	0.0	507.04572578713464	455.59438755397	0.0	506.8623360840428	504.42050436903367	0.0	503.90945571507666	552.1758007770032	0.0	504.40290696532435	566.8511134144425	0.0	498.08096261759783	565.9393366473583	0.0	504.5387402437659	558.1808373223878	0.0	528.9960712101193	456.25546418023566	0.0	524.3498241361991	505.6647568433325	0.0	519.6900044687386	550.3432318863179	0.0	516.149886432957	563.4695286413026	0.0	522.8121874791573	562.6525960470846	0.0	519.3914412942717	554.5780214236241	0.0	520.9945119815328	380.7612234662438	0.0	520.6751301132496	351.92506285757077	0.0	520.1844067644141	374.1085044001665	0.0	498.20323780009215	389.60686303554394	0.0	491.1036348337576	425.675158224651	0.0	490.28276018459445	456.685575524743	0.0	544.5742640170744	390.1167840578065	0.0	551.5373864135703	427.0781210062046	0.0	549.9227942494045	455.8446484285269	0.0
226	9.045156873930404	518.1387478491014	455.50141157395274	0.0	507.4659201190969	456.7081840974037	0.0	507.3061081689253	504.9655844363178	0.0	504.8163855310495	552.6521601381828	0.0	505.3166198697494	567.1299821897469	0.0	499.0810661059357	566.0007322377384	0.0	505.32566146682683	558.453514047718	0.0	529.0709722850423	457.15613895757673	0.0	524.3132557644609	506.8032175000884	0.0	519.7613712814637	549.7106801860264	0.0	516.3127757348213	563.468289501236	0.0	522.7751863455582	562.3583701995555	0.0	519.4058427279303	554.286579501887	0.0	521.0616625119178	381.30222655379214	0.0	520.8625775223013	351.4223687724118	0.0	520.388630928731	373.37626798474224	0.0	498.1182023852926	390.4001585172547	0.0	490.9305830555626	426.7001200790035	0.0	490.3077307522803	457.3056791409934	0.0	545.1299320059717	390.67397588733684	0.0	551.8628852035162	427.4409120179397	0.0	550.5529950629103	455.8141099598176	0.0
227	9.085179691956645	518.1978248611194	455.7457787040209	0.0	507.498580553031	457.26208684185866	0.0	507.79110998248007	504.3867797365627	0.0	505.7384598686827	552.7741826822116	0.0	506.2688890363067	567.3354820735092	0.0	500.1141166207401	566.2391907273809	0.0	505.91728854572176	558.8875445195335	0.0	529.3047978924153	457.442864240721	0.0	524.3430157425557	506.8033746353601	0.0	519.7424225594357	549.7888524316471	0.0	516.3900238191236	563.529526674081	0.0	522.497459837301	562.2109550993401	0.0	519.3183130300282	554.5558454821273	0.0	521.0874228826774	382.6352622712151	0.0	521.109209610147	352.4762265969281	0.0	520.9410613549878	375.58067579839775	0.0	498.08959689446124	390.50989741817517	0.0	490.8420200872528	426.9791203808966	0.0	490.3256715048516	457.3869623510596	0.0	545.258781756545	390.6505036971752	0.0	551.8794558437439	427.38024375620256	0.0	551.3593785086028	455.70501442268966	0.0
228	9.125202509982886	518.3433467346802	456.1308345758837	0.0	507.4378938329238	457.19138651990215	0.0	508.1660214114591	504.15902283694834	0.0	506.41047806983613	553.1238856892539	0.0	507.2268735893942	567.3398880739113	0.0	501.19368743759475	566.4005926148272	0.0	506.4144573660151	559.3159385367653	0.0	529.5029866599053	457.3593584695843	0.0	524.4060649851905	506.8103673032949	0.0	519.593671834745	550.4786108638204	0.0	516.2105870645497	563.5559164225233	0.0	522.1677539278054	562.0231671068294	0.0	519.2327435328277	555.2450422501654	0.0	521.2037174903667	384.0729848767762	0.0	521.2625504037721	355.2952881124422	0.0	521.2928004259542	378.944120473974	0.0	498.1430829280419	390.5794237060509	0.0	490.8448170044606	427.15307140766146	0.0	490.4705905775741	457.8312229473061	0.0	545.0963669538706	390.7781682584293	0.0	551.8660688155746	427.7804624793589	0.0	552.0412790282983	456.8759086775476	0.0
229	9.165225328009127	518.4895566709777	457.37442142854354	0.0	507.65842222687166	457.2669363429476	0.0	508.534196050946	505.10760097276545	0.0	506.94827929985416	553.7460131942508	0.0	508.4556816614598	567.2627735745223	0.0	502.5925548586152	566.6759301256526	0.0	506.9338712187085	559.4760400445937	0.0	529.6557889066266	457.542987385369	0.0	524.3540429247585	507.71769955984735	0.0	519.4734518021113	550.794880375757	0.0	515.8777895213386	563.655689342397	0.0	521.9938199541853	561.8051513095176	0.0	519.3435397644765	555.407117301611	0.0	521.3768336555843	384.32145861789934	0.0	521.210031114916	357.46406346044944	0.0	521.0565992613213	380.06932825332046	0.0	498.23047661618654	391.2729656382555	0.0	490.8949578201974	427.8997239481913	0.0	490.75475968601705	458.8922118534241	0.0	545.0765308905246	391.58417746014334	0.0	552.0699374380252	428.999489024719	0.0	552.4420495097539	458.8780526690891	0.0
230	9.205248146035368	518.4976104454639	458.7378331518666	0.0	507.8604022937129	458.2168945676276	0.0	509.1739745277699	506.34985343504223	0.0	507.79696313877145	554.2447210584884	0.0	509.8608960396713	567.6660825417308	0.0	504.1016734125144	567.4830396131437	0.0	507.6325174581493	559.6992164129554	0.0	529.7210723645122	458.40640744833587	0.0	524.1365723975961	508.73053651619574	0.0	519.6410280594224	550.6848796726778	0.0	515.8954227778725	563.909968368747	0.0	522.0082355581678	561.9652491634527	0.0	519.8332055193198	555.1487316513636	0.0	521.390922905787	384.5006059092434	0.0	520.8850532759452	357.6316250254582	0.0	520.4507604474843	379.5140752115379	0.0	498.346375480274	392.51324634143026	0.0	490.9572480213881	429.0421256256089	0.0	490.97666873750256	460.02245291066924	0.0	545.0973436434142	392.6897541649903	0.0	552.3363981780077	430.30464497362703	0.0	552.6980911077471	460.1503230037147	0.0
231	9.245270964061607	518.4487821547356	459.41707115840813	0.0	507.7744900390775	459.8284588971449	0.0	510.1869928394206	506.96260711584716	0.0	509.0493238987482	554.638954218699	0.0	510.9898868467531	568.6923597162328	0.0	505.1553545154043	568.5983319036766	0.0	508.59613034818045	560.4113881762669	0.0	529.6489266528647	459.86567337329274	0.0	523.9588193673287	508.9825710419212	0.0	520.0316098860955	550.6692810305034	0.0	516.7583473476011	564.0482615349956	0.0	522.2073217749511	562.5019940065636	0.0	520.544246998418	555.1850229029029	0.0	521.17483096519	385.7651462200709	0.0	520.5320671725219	356.5944571439869	0.0	520.0205263051537	379.1200804938787	0.0	498.4484838279577	393.58603511570885	0.0	491.04505911550564	430.0256646720524	0.0	491.00297306394435	461.0339649018008	0.0	544.9085120887214	393.4613460520258	0.0	552.4434606731903	430.96110040819224	0.0	552.9115930513866	460.7065766660225	0.0
